<?xml version="1.0" encoding="UTF-8" standalone="no"?>
<!-- Generator: Adobe Illustrator 16.0.0, SVG Export Plug-In . SVG Version: 6.00 Build 0)  -->

<svg
   version="1.1"
   id="Capa_1"
   x="0px"
   y="0px"
   width="31.371px"
   height="31.371px"
   viewBox="0 0 31.371 31.371"
   style="enable-background:new 0 0 31.371 31.371;"
   xml:space="preserve"
   sodipodi:docname="dollar-sign-symbol-bold-text-svgrepo-com.svg"
   inkscape:version="1.1.2 (0a00cf5339, 2022-02-04, custom)"
   xmlns:inkscape="http://www.inkscape.org/namespaces/inkscape"
   xmlns:sodipodi="http://sodipodi.sourceforge.net/DTD/sodipodi-0.dtd"
   xmlns="http://www.w3.org/2000/svg"
   xmlns:svg="http://www.w3.org/2000/svg"><defs
   id="defs39" /><sodipodi:namedview
   id="namedview37"
   pagecolor="#ffffff"
   bordercolor="#666666"
   borderopacity="1.0"
   inkscape:pageshadow="2"
   inkscape:pageopacity="0.0"
   inkscape:pagecheckerboard="0"
   showgrid="false"
   inkscape:zoom="23.748047"
   inkscape:cx="7.3900813"
   inkscape:cy="15.664446"
   inkscape:window-width="1834"
   inkscape:window-height="1051"
   inkscape:window-x="1366"
   inkscape:window-y="0"
   inkscape:window-maximized="1"
   inkscape:current-layer="Capa_1" />
<g
   id="g4"
   style="fill:#ffffff;fill-opacity:1">
	<path
   d="M24.26,20.34c0,3.42-2.423,6.342-6.845,7.111v3.92h-3.768v-3.648c-2.578-0.117-5.076-0.811-6.537-1.654l1.154-4.5   c1.615,0.886,3.883,1.693,6.383,1.693c2.191,0,3.691-0.848,3.691-2.385c0-1.461-1.23-2.389-4.077-3.348   c-4.112-1.385-6.921-3.306-6.921-7.033c0-3.386,2.385-6.035,6.499-6.845V0h3.767v3.383c2.576,0.115,4.309,0.652,5.576,1.268   l-1.115,4.348C21.07,8.575,19.3,7.688,16.531,7.688c-2.5,0-3.307,1.076-3.307,2.154c0,1.268,1.346,2.074,4.613,3.307   C22.416,14.762,24.26,16.877,24.26,20.34z"
   id="path2"
   style="fill:#ffffff;fill-opacity:1" />
</g>
<g
   id="g6"
   style="fill:#ffffff;fill-opacity:1">
</g>
<g
   id="g8"
   style="fill:#ffffff;fill-opacity:1">
</g>
<g
   id="g10"
   style="fill:#ffffff;fill-opacity:1">
</g>
<g
   id="g12"
   style="fill:#ffffff;fill-opacity:1">
</g>
<g
   id="g14"
   style="fill:#ffffff;fill-opacity:1">
</g>
<g
   id="g16"
   style="fill:#ffffff;fill-opacity:1">
</g>
<g
   id="g18"
   style="fill:#ffffff;fill-opacity:1">
</g>
<g
   id="g20"
   style="fill:#ffffff;fill-opacity:1">
</g>
<g
   id="g22"
   style="fill:#ffffff;fill-opacity:1">
</g>
<g
   id="g24"
   style="fill:#ffffff;fill-opacity:1">
</g>
<g
   id="g26"
   style="fill:#ffffff;fill-opacity:1">
</g>
<g
   id="g28"
   style="fill:#ffffff;fill-opacity:1">
</g>
<g
   id="g30"
   style="fill:#ffffff;fill-opacity:1">
</g>
<g
   id="g32"
   style="fill:#ffffff;fill-opacity:1">
</g>
<g
   id="g34"
   style="fill:#ffffff;fill-opacity:1">
</g>
</svg>
